<svg width="640" height="462" viewBox="0 0 640 462" fill="none" xmlns="http://www.w3.org/2000/svg">
<g clip-path="url(#clip0_107_508)">
<path d="M514.873 97.0592C514.047 83.0529 511.69 69.1944 505.561 56.3996C500.345 45.4664 491.77 39.3498 479.216 40.059C465.631 40.7977 452.076 42.1569 438.521 42.3638C409.819 42.7775 381.087 42.7479 352.385 42.6002C321.827 42.4524 291.239 42.9548 260.74 41.4182C222.814 39.5271 185.095 40.3249 147.523 45.5551C136.915 47.0325 129.724 53.3561 125.393 63.3436C121.503 72.3266 119.853 81.6936 120 91.3266C120.648 133.375 119.558 175.394 121.12 217.442C123.241 274.531 126.66 331.413 132.553 388.265C135.294 414.653 153.328 423.695 173.278 420.474C213.443 414.003 253.903 414.948 294.215 412.998C349.674 410.309 405.222 409.629 460.74 407.561C473.499 407.088 486.436 406.172 498.93 402.744C513.429 398.785 519.764 390.984 519.853 375.855C520.03 344.119 519.912 312.383 519.912 275.92C520.589 219.392 518.527 158.226 514.932 97.1183L514.873 97.0592ZM502.643 375.382C501.936 383.36 498.105 386.758 491.328 387.733C483.342 388.886 475.297 389.684 467.252 389.95C394.525 392.52 321.768 394.441 249.041 397.662C223.463 398.785 197.648 399.435 172.512 405.581C171.805 405.758 171.039 405.729 170.302 405.729C153.24 405.758 148.879 409.541 147.022 387.881C144.046 353.072 139.891 318.352 137.651 283.514C133.379 216.556 133.054 149.45 133.202 82.3437C133.231 63.3732 141.6 54.9222 160.224 53.7697C205.045 51.0512 249.954 49.7215 294.716 51.9377C330.726 53.7106 366.736 53.7993 402.717 54.4494C426.881 54.8926 451.251 54.5085 475.474 53.2379C485.611 52.706 490.532 56.7837 493.685 66.5349C501.907 91.9767 500.639 118.394 501.317 144.308C502.614 192.562 505.561 240.845 504.028 289.187C503.704 317.909 505.178 346.66 502.614 375.382H502.643Z" fill="#141616"/>
<path d="M416.95 91.2088C400.477 93.5432 388.602 103.265 379.467 116.119C374.899 122.501 372.483 122.856 367.208 117.389C355.598 105.363 341.63 97.8869 331.758 97.5618C292.713 97.0004 272.822 121.29 278.656 152.73C283.018 176.192 297.162 193.124 314.018 208.371C333.349 225.834 356.894 236.383 379.467 248.646C389.751 254.231 396.087 251.897 403.395 244.332C417.481 229.794 430.712 214.576 442.97 198.442C454.64 183.077 464.63 167.061 468.195 147.648C473.087 121.142 453.992 85.9195 416.95 91.1792V91.2088ZM452.43 150.071C449.954 160.679 444.974 170.193 438.845 178.851C426.085 196.847 411.675 213.542 396.853 229.883C391.725 235.527 387.453 236.915 379.938 233.044C354.36 219.865 329.165 206.391 310.393 183.727C302.113 173.739 295.777 162.777 293.214 149.686C288.705 126.638 301.995 110.209 330.167 110.8C343.457 112.425 358.927 118.512 366.353 136.892C367.945 140.822 369.064 144.752 374.369 144.338C379.378 143.954 381.087 139.906 382.03 136.035C384.182 127.288 389.839 121.083 396.146 115.439C409.259 103.679 425.673 101.226 437.755 108.82C449.453 116.178 455.966 134.735 452.4 150.1L452.43 150.071Z" fill="#161515"/>
</g>
<path d="M341.804 181.51V166.308H343.3L343.454 167.54H343.52C344.004 167.129 344.539 166.777 345.126 166.484C345.713 166.191 346.314 166.044 346.93 166.044C347.839 166.044 348.609 166.271 349.24 166.726C349.871 167.166 350.347 167.797 350.67 168.618C350.993 169.425 351.154 170.385 351.154 171.5C351.154 172.703 350.934 173.737 350.494 174.602C350.069 175.467 349.504 176.127 348.8 176.582C348.096 177.037 347.341 177.264 346.534 177.264C346.05 177.264 345.559 177.154 345.06 176.934C344.561 176.714 344.063 176.413 343.564 176.032L343.608 177.902V181.51H341.804ZM346.226 175.746C346.813 175.746 347.333 175.577 347.788 175.24C348.257 174.903 348.624 174.419 348.888 173.788C349.152 173.143 349.284 172.38 349.284 171.5C349.284 170.723 349.189 170.041 348.998 169.454C348.807 168.853 348.507 168.391 348.096 168.068C347.685 167.731 347.143 167.562 346.468 167.562C346.028 167.562 345.573 167.687 345.104 167.936C344.635 168.171 344.136 168.53 343.608 169.014V174.624C344.107 175.035 344.576 175.328 345.016 175.504C345.471 175.665 345.874 175.746 346.226 175.746ZM358.627 177.264C357.674 177.264 356.801 177.044 356.009 176.604C355.232 176.149 354.616 175.511 354.161 174.69C353.706 173.854 353.479 172.842 353.479 171.654C353.479 170.495 353.714 169.498 354.183 168.662C354.652 167.826 355.254 167.181 355.987 166.726C356.72 166.271 357.498 166.044 358.319 166.044C359.228 166.044 359.998 166.257 360.629 166.682C361.274 167.093 361.758 167.672 362.081 168.42C362.404 169.168 362.565 170.048 362.565 171.06C362.565 171.251 362.558 171.434 362.543 171.61C362.543 171.786 362.521 171.962 362.477 172.138H354.777V170.708H360.937C360.937 169.681 360.71 168.897 360.255 168.354C359.815 167.797 359.177 167.518 358.341 167.518C357.857 167.518 357.38 167.657 356.911 167.936C356.442 168.2 356.053 168.633 355.745 169.234C355.452 169.835 355.305 170.635 355.305 171.632C355.305 172.541 355.459 173.304 355.767 173.92C356.09 174.536 356.522 175.005 357.065 175.328C357.608 175.636 358.202 175.79 358.847 175.79C359.36 175.79 359.837 175.717 360.277 175.57C360.732 175.423 361.142 175.225 361.509 174.976L362.169 176.164C361.7 176.487 361.172 176.751 360.585 176.956C360.013 177.161 359.36 177.264 358.627 177.264ZM365.493 177V166.308H366.989L367.143 168.244H367.209C367.561 167.569 368.001 167.034 368.529 166.638C369.057 166.242 369.629 166.044 370.245 166.044C370.48 166.044 370.685 166.059 370.861 166.088C371.037 166.117 371.213 166.176 371.389 166.264L370.993 167.804C370.832 167.76 370.678 167.731 370.531 167.716C370.399 167.687 370.223 167.672 370.003 167.672C369.549 167.672 369.072 167.855 368.573 168.222C368.089 168.589 367.664 169.227 367.297 170.136V177H365.493ZM376.114 177.264C375.337 177.264 374.596 177.132 373.892 176.868C373.203 176.589 372.616 176.208 372.132 175.724L372.968 174.668C373.438 175.049 373.922 175.343 374.42 175.548C374.934 175.753 375.52 175.856 376.18 175.856C376.884 175.856 377.412 175.695 377.764 175.372C378.116 175.035 378.292 174.639 378.292 174.184C378.292 173.817 378.168 173.517 377.918 173.282C377.684 173.033 377.383 172.827 377.016 172.666C376.664 172.49 376.283 172.329 375.872 172.182C375.344 171.991 374.838 171.771 374.354 171.522C373.87 171.258 373.474 170.935 373.166 170.554C372.873 170.158 372.726 169.667 372.726 169.08C372.726 168.215 373.049 167.496 373.694 166.924C374.354 166.337 375.264 166.044 376.422 166.044C377.082 166.044 377.698 166.161 378.27 166.396C378.842 166.616 379.334 166.902 379.744 167.254L378.908 168.288C378.527 168.024 378.138 167.819 377.742 167.672C377.346 167.525 376.906 167.452 376.422 167.452C375.748 167.452 375.249 167.606 374.926 167.914C374.618 168.222 374.464 168.581 374.464 168.992C374.464 169.315 374.56 169.586 374.75 169.806C374.941 170.011 375.205 170.195 375.542 170.356C375.894 170.517 376.29 170.671 376.73 170.818C377.288 171.023 377.816 171.258 378.314 171.522C378.828 171.771 379.238 172.101 379.546 172.512C379.869 172.908 380.03 173.429 380.03 174.074C380.03 174.661 379.876 175.196 379.568 175.68C379.275 176.149 378.835 176.531 378.248 176.824C377.676 177.117 376.965 177.264 376.114 177.264ZM386.981 177.264C386.116 177.264 385.302 177.044 384.539 176.604C383.791 176.164 383.182 175.526 382.713 174.69C382.258 173.854 382.031 172.849 382.031 171.676C382.031 170.473 382.258 169.454 382.713 168.618C383.182 167.782 383.791 167.144 384.539 166.704C385.302 166.264 386.116 166.044 386.981 166.044C387.861 166.044 388.675 166.264 389.423 166.704C390.171 167.144 390.772 167.782 391.227 168.618C391.696 169.454 391.931 170.473 391.931 171.676C391.931 172.849 391.696 173.854 391.227 174.69C390.772 175.526 390.171 176.164 389.423 176.604C388.675 177.044 387.861 177.264 386.981 177.264ZM386.981 175.768C387.597 175.768 388.14 175.599 388.609 175.262C389.078 174.91 389.438 174.426 389.687 173.81C389.936 173.194 390.061 172.483 390.061 171.676C390.061 170.855 389.936 170.136 389.687 169.52C389.438 168.889 389.078 168.405 388.609 168.068C388.14 167.716 387.597 167.54 386.981 167.54C386.365 167.54 385.822 167.716 385.353 168.068C384.898 168.405 384.539 168.889 384.275 169.52C384.026 170.136 383.901 170.855 383.901 171.676C383.901 172.483 384.026 173.194 384.275 173.81C384.539 174.426 384.898 174.91 385.353 175.262C385.822 175.599 386.365 175.768 386.981 175.768ZM395.033 177V166.308H396.529L396.683 167.848H396.749C397.262 167.335 397.805 166.909 398.377 166.572C398.949 166.22 399.601 166.044 400.335 166.044C401.464 166.044 402.285 166.403 402.799 167.122C403.327 167.826 403.591 168.86 403.591 170.224V177H401.787V170.466C401.787 169.454 401.625 168.728 401.303 168.288C400.995 167.833 400.481 167.606 399.763 167.606C399.22 167.606 398.729 167.745 398.289 168.024C397.863 168.303 397.379 168.713 396.837 169.256V177H395.033Z" fill="black"/>
<path d="M256.804 25.51V10.308H258.3L258.454 11.54H258.52C259.004 11.1293 259.539 10.7773 260.126 10.484C260.713 10.1907 261.314 10.044 261.93 10.044C262.839 10.044 263.609 10.2713 264.24 10.726C264.871 11.166 265.347 11.7967 265.67 12.618C265.993 13.4247 266.154 14.3853 266.154 15.5C266.154 16.7027 265.934 17.7367 265.494 18.602C265.069 19.4673 264.504 20.1273 263.8 20.582C263.096 21.0367 262.341 21.264 261.534 21.264C261.05 21.264 260.559 21.154 260.06 20.934C259.561 20.714 259.063 20.4133 258.564 20.032L258.608 21.902V25.51H256.804ZM261.226 19.746C261.813 19.746 262.333 19.5773 262.788 19.24C263.257 18.9027 263.624 18.4187 263.888 17.788C264.152 17.1427 264.284 16.38 264.284 15.5C264.284 14.7227 264.189 14.0407 263.998 13.454C263.807 12.8527 263.507 12.3907 263.096 12.068C262.685 11.7307 262.143 11.562 261.468 11.562C261.028 11.562 260.573 11.6867 260.104 11.936C259.635 12.1707 259.136 12.53 258.608 13.014V18.624C259.107 19.0347 259.576 19.328 260.016 19.504C260.471 19.6653 260.874 19.746 261.226 19.746ZM272.044 21.264C271.267 21.264 270.526 21.132 269.822 20.868C269.133 20.5893 268.546 20.208 268.062 19.724L268.898 18.668C269.367 19.0493 269.851 19.3427 270.35 19.548C270.863 19.7533 271.45 19.856 272.11 19.856C272.814 19.856 273.342 19.6947 273.694 19.372C274.046 19.0347 274.222 18.6387 274.222 18.184C274.222 17.8173 274.097 17.5167 273.848 17.282C273.613 17.0327 273.313 16.8273 272.946 16.666C272.594 16.49 272.213 16.3287 271.802 16.182C271.274 15.9913 270.768 15.7713 270.284 15.522C269.8 15.258 269.404 14.9353 269.096 14.554C268.803 14.158 268.656 13.6667 268.656 13.08C268.656 12.2147 268.979 11.496 269.624 10.924C270.284 10.3373 271.193 10.044 272.352 10.044C273.012 10.044 273.628 10.1613 274.2 10.396C274.772 10.616 275.263 10.902 275.674 11.254L274.838 12.288C274.457 12.024 274.068 11.8187 273.672 11.672C273.276 11.5253 272.836 11.452 272.352 11.452C271.677 11.452 271.179 11.606 270.856 11.914C270.548 12.222 270.394 12.5813 270.394 12.992C270.394 13.3147 270.489 13.586 270.68 13.806C270.871 14.0113 271.135 14.1947 271.472 14.356C271.824 14.5173 272.22 14.6713 272.66 14.818C273.217 15.0233 273.745 15.258 274.244 15.522C274.757 15.7713 275.168 16.1013 275.476 16.512C275.799 16.908 275.96 17.4287 275.96 18.074C275.96 18.6607 275.806 19.196 275.498 19.68C275.205 20.1493 274.765 20.5307 274.178 20.824C273.606 21.1173 272.895 21.264 272.044 21.264ZM278.929 25.598C278.694 25.598 278.467 25.576 278.247 25.532C278.042 25.488 277.851 25.4367 277.675 25.378L278.071 23.97C278.203 24.014 278.335 24.0433 278.467 24.058C278.599 24.0873 278.724 24.102 278.841 24.102C279.457 24.102 279.956 23.882 280.337 23.442C280.733 23.0167 281.041 22.474 281.261 21.814L281.503 21.022L277.213 10.308H279.083L281.261 16.226C281.437 16.6807 281.613 17.172 281.789 17.7C281.965 18.228 282.134 18.7413 282.295 19.24H282.383C282.544 18.7413 282.698 18.2353 282.845 17.722C283.006 17.194 283.153 16.6953 283.285 16.226L285.199 10.308H286.959L282.933 21.88C282.684 22.584 282.383 23.2147 282.031 23.772C281.679 24.344 281.254 24.7913 280.755 25.114C280.256 25.4367 279.648 25.598 278.929 25.598ZM293.469 21.264C292.515 21.264 291.657 21.044 290.895 20.604C290.132 20.164 289.531 19.526 289.091 18.69C288.651 17.854 288.431 16.8493 288.431 15.676C288.431 14.4733 288.665 13.454 289.135 12.618C289.619 11.782 290.249 11.144 291.027 10.704C291.819 10.264 292.669 10.044 293.579 10.044C294.283 10.044 294.884 10.1613 295.383 10.396C295.896 10.6307 296.336 10.9313 296.703 11.298L295.801 12.42C295.537 12.156 295.221 11.9507 294.855 11.804C294.503 11.6427 294.099 11.562 293.645 11.562C293.014 11.562 292.442 11.738 291.929 12.09C291.43 12.4273 291.034 12.904 290.741 13.52C290.447 14.136 290.301 14.8547 290.301 15.676C290.301 16.4827 290.44 17.194 290.719 17.81C290.997 18.426 291.386 18.91 291.885 19.262C292.383 19.5993 292.963 19.768 293.623 19.768C294.121 19.768 294.583 19.6727 295.009 19.482C295.434 19.2913 295.801 19.0493 296.109 18.756L296.901 19.856C296.446 20.2813 295.933 20.626 295.361 20.89C294.789 21.1393 294.158 21.264 293.469 21.264ZM299.542 21V5.336H301.346V9.604L301.28 11.804C301.793 11.32 302.328 10.9093 302.886 10.572C303.458 10.22 304.11 10.044 304.844 10.044C305.973 10.044 306.794 10.4033 307.308 11.122C307.836 11.826 308.1 12.86 308.1 14.224V21H306.296V14.466C306.296 13.454 306.134 12.728 305.812 12.288C305.504 11.8333 304.99 11.606 304.272 11.606C303.729 11.606 303.238 11.7453 302.798 12.024C302.372 12.3027 301.888 12.7133 301.346 13.256V21H299.542ZM315.953 21.264C315.087 21.264 314.273 21.044 313.511 20.604C312.763 20.164 312.154 19.526 311.685 18.69C311.23 17.854 311.003 16.8493 311.003 15.676C311.003 14.4733 311.23 13.454 311.685 12.618C312.154 11.782 312.763 11.144 313.511 10.704C314.273 10.264 315.087 10.044 315.953 10.044C316.833 10.044 317.647 10.264 318.395 10.704C319.143 11.144 319.744 11.782 320.199 12.618C320.668 13.454 320.903 14.4733 320.903 15.676C320.903 16.8493 320.668 17.854 320.199 18.69C319.744 19.526 319.143 20.164 318.395 20.604C317.647 21.044 316.833 21.264 315.953 21.264ZM315.953 19.768C316.569 19.768 317.111 19.5993 317.581 19.262C318.05 18.91 318.409 18.426 318.659 17.81C318.908 17.194 319.033 16.4827 319.033 15.676C319.033 14.8547 318.908 14.136 318.659 13.52C318.409 12.8893 318.05 12.4053 317.581 12.068C317.111 11.716 316.569 11.54 315.953 11.54C315.337 11.54 314.794 11.716 314.325 12.068C313.87 12.4053 313.511 12.8893 313.247 13.52C312.997 14.136 312.873 14.8547 312.873 15.676C312.873 16.4827 312.997 17.194 313.247 17.81C313.511 18.426 313.87 18.91 314.325 19.262C314.794 19.5993 315.337 19.768 315.953 19.768ZM325.918 21.198C325.464 21.198 325.097 21.11 324.818 20.934C324.54 20.7433 324.334 20.472 324.202 20.12C324.07 19.7533 324.004 19.3133 324.004 18.8V5.336H325.808V18.932C325.808 19.2253 325.86 19.4307 325.962 19.548C326.065 19.6507 326.19 19.702 326.336 19.702C326.395 19.702 326.446 19.702 326.49 19.702C326.549 19.6873 326.622 19.6727 326.71 19.658L326.974 21.022C326.842 21.066 326.688 21.1027 326.512 21.132C326.351 21.176 326.153 21.198 325.918 21.198ZM334.056 21.264C333.19 21.264 332.376 21.044 331.614 20.604C330.866 20.164 330.257 19.526 329.788 18.69C329.333 17.854 329.106 16.8493 329.106 15.676C329.106 14.4733 329.333 13.454 329.788 12.618C330.257 11.782 330.866 11.144 331.614 10.704C332.376 10.264 333.19 10.044 334.056 10.044C334.936 10.044 335.75 10.264 336.498 10.704C337.246 11.144 337.847 11.782 338.302 12.618C338.771 13.454 339.006 14.4733 339.006 15.676C339.006 16.8493 338.771 17.854 338.302 18.69C337.847 19.526 337.246 20.164 336.498 20.604C335.75 21.044 334.936 21.264 334.056 21.264ZM334.056 19.768C334.672 19.768 335.214 19.5993 335.684 19.262C336.153 18.91 336.512 18.426 336.762 17.81C337.011 17.194 337.136 16.4827 337.136 15.676C337.136 14.8547 337.011 14.136 336.762 13.52C336.512 12.8893 336.153 12.4053 335.684 12.068C335.214 11.716 334.672 11.54 334.056 11.54C333.44 11.54 332.897 11.716 332.428 12.068C331.973 12.4053 331.614 12.8893 331.35 13.52C331.1 14.136 330.976 14.8547 330.976 15.676C330.976 16.4827 331.1 17.194 331.35 17.81C331.614 18.426 331.973 18.91 332.428 19.262C332.897 19.5993 333.44 19.768 334.056 19.768ZM345.716 25.928C344.85 25.928 344.08 25.8107 343.406 25.576C342.746 25.356 342.225 25.0333 341.844 24.608C341.477 24.1827 341.294 23.662 341.294 23.046C341.294 22.5913 341.433 22.1513 341.712 21.726C341.99 21.3153 342.372 20.9487 342.856 20.626V20.538C342.592 20.362 342.364 20.1347 342.174 19.856C341.998 19.5627 341.91 19.2107 341.91 18.8C341.91 18.3453 342.034 17.9493 342.284 17.612C342.548 17.2747 342.812 17.0107 343.076 16.82V16.732C342.738 16.4387 342.423 16.0427 342.13 15.544C341.836 15.0453 341.69 14.4807 341.69 13.85C341.69 13.0727 341.873 12.398 342.24 11.826C342.621 11.254 343.112 10.814 343.714 10.506C344.33 10.198 344.997 10.044 345.716 10.044C346.009 10.044 346.288 10.0733 346.552 10.132C346.816 10.176 347.043 10.2347 347.234 10.308H350.952V11.694H348.73V11.782C348.994 12.0167 349.206 12.31 349.368 12.662C349.544 13.014 349.632 13.432 349.632 13.916C349.632 14.6787 349.456 15.3387 349.104 15.896C348.752 16.4387 348.282 16.864 347.696 17.172C347.109 17.4653 346.449 17.612 345.716 17.612C345.452 17.612 345.18 17.5827 344.902 17.524C344.623 17.4507 344.359 17.3553 344.11 17.238C343.934 17.3993 343.772 17.5753 343.626 17.766C343.494 17.9567 343.428 18.206 343.428 18.514C343.428 18.8513 343.56 19.13 343.824 19.35C344.102 19.57 344.601 19.68 345.32 19.68H347.388C348.634 19.68 349.566 19.8853 350.182 20.296C350.812 20.692 351.128 21.3373 351.128 22.232C351.128 22.892 350.908 23.5007 350.468 24.058C350.028 24.6153 349.397 25.0627 348.576 25.4C347.769 25.752 346.816 25.928 345.716 25.928ZM345.716 16.402C346.126 16.402 346.5 16.2993 346.838 16.094C347.19 15.874 347.468 15.5733 347.674 15.192C347.879 14.8107 347.982 14.3633 347.982 13.85C347.982 13.058 347.762 12.4493 347.322 12.024C346.882 11.584 346.346 11.364 345.716 11.364C345.085 11.364 344.55 11.584 344.11 12.024C343.67 12.4493 343.45 13.058 343.45 13.85C343.45 14.3633 343.552 14.8107 343.758 15.192C343.963 15.5733 344.234 15.874 344.572 16.094C344.924 16.2993 345.305 16.402 345.716 16.402ZM345.98 24.674C346.654 24.674 347.241 24.5713 347.74 24.366C348.253 24.1607 348.649 23.8893 348.928 23.552C349.221 23.2147 349.368 22.8627 349.368 22.496C349.368 21.9973 349.177 21.6527 348.796 21.462C348.429 21.2713 347.901 21.176 347.212 21.176H345.364C345.158 21.176 344.931 21.1613 344.682 21.132C344.447 21.1027 344.212 21.0587 343.978 21C343.582 21.2787 343.296 21.572 343.12 21.88C342.958 22.188 342.878 22.496 342.878 22.804C342.878 23.376 343.149 23.8307 343.692 24.168C344.249 24.5053 345.012 24.674 345.98 24.674ZM353.999 25.598C353.765 25.598 353.537 25.576 353.317 25.532C353.112 25.488 352.921 25.4367 352.745 25.378L353.141 23.97C353.273 24.014 353.405 24.0433 353.537 24.058C353.669 24.0873 353.794 24.102 353.911 24.102C354.527 24.102 355.026 23.882 355.407 23.442C355.803 23.0167 356.111 22.474 356.331 21.814L356.573 21.022L352.283 10.308H354.153L356.331 16.226C356.507 16.6807 356.683 17.172 356.859 17.7C357.035 18.228 357.204 18.7413 357.365 19.24H357.453C357.615 18.7413 357.769 18.2353 357.915 17.722C358.077 17.194 358.223 16.6953 358.355 16.226L360.269 10.308H362.029L358.003 21.88C357.754 22.584 357.453 23.2147 357.101 23.772C356.749 24.344 356.324 24.7913 355.825 25.114C355.327 25.4367 354.718 25.598 353.999 25.598Z" fill="black"/>
<path d="M545.138 232.264C544.185 232.264 543.312 232.044 542.52 231.604C541.743 231.149 541.127 230.511 540.672 229.69C540.217 228.854 539.99 227.842 539.99 226.654C539.99 225.495 540.225 224.498 540.694 223.662C541.163 222.826 541.765 222.181 542.498 221.726C543.231 221.271 544.009 221.044 544.83 221.044C545.739 221.044 546.509 221.257 547.14 221.682C547.785 222.093 548.269 222.672 548.592 223.42C548.915 224.168 549.076 225.048 549.076 226.06C549.076 226.251 549.069 226.434 549.054 226.61C549.054 226.786 549.032 226.962 548.988 227.138H541.288V225.708H547.448C547.448 224.681 547.221 223.897 546.766 223.354C546.326 222.797 545.688 222.518 544.852 222.518C544.368 222.518 543.891 222.657 543.422 222.936C542.953 223.2 542.564 223.633 542.256 224.234C541.963 224.835 541.816 225.635 541.816 226.632C541.816 227.541 541.97 228.304 542.278 228.92C542.601 229.536 543.033 230.005 543.576 230.328C544.119 230.636 544.713 230.79 545.358 230.79C545.871 230.79 546.348 230.717 546.788 230.57C547.243 230.423 547.653 230.225 548.02 229.976L548.68 231.164C548.211 231.487 547.683 231.751 547.096 231.956C546.524 232.161 545.871 232.264 545.138 232.264ZM555.656 232.264C554.307 232.264 553.229 231.78 552.422 230.812C551.63 229.829 551.234 228.451 551.234 226.676C551.234 225.517 551.447 224.52 551.872 223.684C552.312 222.833 552.884 222.181 553.588 221.726C554.292 221.271 555.055 221.044 555.876 221.044C556.507 221.044 557.042 221.154 557.482 221.374C557.937 221.579 558.399 221.88 558.868 222.276L558.78 220.45V216.336H560.606V232H559.11L558.956 230.746H558.89C558.479 231.157 557.995 231.516 557.438 231.824C556.881 232.117 556.287 232.264 555.656 232.264ZM556.052 230.746C556.551 230.746 557.02 230.621 557.46 230.372C557.9 230.123 558.34 229.756 558.78 229.272V223.684C558.34 223.273 557.907 222.987 557.482 222.826C557.057 222.65 556.624 222.562 556.184 222.562C555.612 222.562 555.091 222.738 554.622 223.09C554.167 223.427 553.801 223.904 553.522 224.52C553.243 225.121 553.104 225.833 553.104 226.654C553.104 227.93 553.361 228.935 553.874 229.668C554.387 230.387 555.113 230.746 556.052 230.746ZM567.617 232.264C566.488 232.264 565.659 231.912 565.131 231.208C564.618 230.489 564.361 229.448 564.361 228.084V221.308H566.165V227.842C566.165 228.839 566.319 229.565 566.627 230.02C566.95 230.46 567.463 230.68 568.167 230.68C568.71 230.68 569.194 230.541 569.619 230.262C570.059 229.969 570.536 229.514 571.049 228.898V221.308H572.853V232H571.357L571.203 230.328H571.137C570.653 230.915 570.125 231.384 569.553 231.736C568.996 232.088 568.351 232.264 567.617 232.264ZM580.992 232.264C580.039 232.264 579.181 232.044 578.418 231.604C577.655 231.164 577.054 230.526 576.614 229.69C576.174 228.854 575.954 227.849 575.954 226.676C575.954 225.473 576.189 224.454 576.658 223.618C577.142 222.782 577.773 222.144 578.55 221.704C579.342 221.264 580.193 221.044 581.102 221.044C581.806 221.044 582.407 221.161 582.906 221.396C583.419 221.631 583.859 221.931 584.226 222.298L583.324 223.42C583.06 223.156 582.745 222.951 582.378 222.804C582.026 222.643 581.623 222.562 581.168 222.562C580.537 222.562 579.965 222.738 579.452 223.09C578.953 223.427 578.557 223.904 578.264 224.52C577.971 225.136 577.824 225.855 577.824 226.676C577.824 227.483 577.963 228.194 578.242 228.81C578.521 229.426 578.909 229.91 579.408 230.262C579.907 230.599 580.486 230.768 581.146 230.768C581.645 230.768 582.107 230.673 582.532 230.482C582.957 230.291 583.324 230.049 583.632 229.756L584.424 230.856C583.969 231.281 583.456 231.626 582.884 231.89C582.312 232.139 581.681 232.264 580.992 232.264ZM589.314 232.264C588.728 232.264 588.192 232.147 587.708 231.912C587.239 231.663 586.865 231.318 586.586 230.878C586.308 230.423 586.168 229.873 586.168 229.228C586.168 228.025 586.696 227.116 587.752 226.5C588.808 225.884 590.48 225.451 592.768 225.202C592.754 224.762 592.68 224.337 592.548 223.926C592.431 223.515 592.211 223.185 591.888 222.936C591.566 222.687 591.118 222.562 590.546 222.562C589.93 222.562 589.351 222.679 588.808 222.914C588.266 223.134 587.782 223.383 587.356 223.662L586.652 222.43C586.975 222.21 587.356 221.997 587.796 221.792C588.236 221.572 588.713 221.396 589.226 221.264C589.74 221.117 590.282 221.044 590.854 221.044C591.72 221.044 592.424 221.227 592.966 221.594C593.524 221.946 593.927 222.452 594.176 223.112C594.44 223.772 594.572 224.549 594.572 225.444V232H593.076L592.922 230.724H592.856C592.343 231.149 591.793 231.516 591.206 231.824C590.62 232.117 589.989 232.264 589.314 232.264ZM589.82 230.768C590.348 230.768 590.84 230.651 591.294 230.416C591.764 230.181 592.255 229.837 592.768 229.382V226.5C591.566 226.647 590.612 226.837 589.908 227.072C589.219 227.292 588.72 227.571 588.412 227.908C588.104 228.245 587.95 228.649 587.95 229.118C587.95 229.705 588.134 230.13 588.5 230.394C588.867 230.643 589.307 230.768 589.82 230.768ZM601.288 232.198C600.158 232.198 599.366 231.868 598.912 231.208C598.457 230.548 598.23 229.69 598.23 228.634V222.782H596.646V221.418L598.318 221.308L598.538 217.876H600.056V221.308H602.96V222.782H600.056V228.656C600.056 229.301 600.173 229.807 600.408 230.174C600.657 230.541 601.09 230.724 601.706 230.724C601.896 230.724 602.094 230.709 602.3 230.68C602.505 230.636 602.71 230.563 602.916 230.46L603.312 231.736C603.033 231.868 602.718 231.978 602.366 232.066C602.014 232.154 601.654 232.198 601.288 232.198ZM605.641 232V221.308H607.445V232H605.641ZM606.543 219.108C606.191 219.108 605.898 218.998 605.663 218.778C605.443 218.558 605.333 218.272 605.333 217.92C605.333 217.568 605.443 217.282 605.663 217.062C605.898 216.842 606.191 216.732 606.543 216.732C606.895 216.732 607.181 216.842 607.401 217.062C607.636 217.282 607.753 217.568 607.753 217.92C607.753 218.272 607.636 218.558 607.401 218.778C607.181 218.998 606.895 219.108 606.543 219.108ZM615.499 232.264C614.634 232.264 613.82 232.044 613.057 231.604C612.309 231.164 611.7 230.526 611.231 229.69C610.776 228.854 610.549 227.849 610.549 226.676C610.549 225.473 610.776 224.454 611.231 223.618C611.7 222.782 612.309 222.144 613.057 221.704C613.82 221.264 614.634 221.044 615.499 221.044C616.379 221.044 617.193 221.264 617.941 221.704C618.689 222.144 619.29 222.782 619.745 223.618C620.214 224.454 620.449 225.473 620.449 226.676C620.449 227.849 620.214 228.854 619.745 229.69C619.29 230.526 618.689 231.164 617.941 231.604C617.193 232.044 616.379 232.264 615.499 232.264ZM615.499 230.768C616.115 230.768 616.658 230.599 617.127 230.262C617.596 229.91 617.956 229.426 618.205 228.81C618.454 228.194 618.579 227.483 618.579 226.676C618.579 225.855 618.454 225.136 618.205 224.52C617.956 223.889 617.596 223.405 617.127 223.068C616.658 222.716 616.115 222.54 615.499 222.54C614.883 222.54 614.34 222.716 613.871 223.068C613.416 223.405 613.057 223.889 612.793 224.52C612.544 225.136 612.419 225.855 612.419 226.676C612.419 227.483 612.544 228.194 612.793 228.81C613.057 229.426 613.416 229.91 613.871 230.262C614.34 230.599 614.883 230.768 615.499 230.768ZM623.551 232V221.308H625.047L625.201 222.848H625.267C625.78 222.335 626.323 221.909 626.895 221.572C627.467 221.22 628.12 221.044 628.853 221.044C629.982 221.044 630.804 221.403 631.317 222.122C631.845 222.826 632.109 223.86 632.109 225.224V232H630.305V225.466C630.305 224.454 630.144 223.728 629.821 223.288C629.513 222.833 629 222.606 628.281 222.606C627.738 222.606 627.247 222.745 626.807 223.024C626.382 223.303 625.898 223.713 625.355 224.256V232H623.551Z" fill="black"/>
<path d="M284.05 442.264C283.097 442.264 282.239 442.044 281.476 441.604C280.713 441.164 280.112 440.526 279.672 439.69C279.232 438.854 279.012 437.849 279.012 436.676C279.012 435.473 279.247 434.454 279.716 433.618C280.2 432.782 280.831 432.144 281.608 431.704C282.4 431.264 283.251 431.044 284.16 431.044C284.864 431.044 285.465 431.161 285.964 431.396C286.477 431.631 286.917 431.931 287.284 432.298L286.382 433.42C286.118 433.156 285.803 432.951 285.436 432.804C285.084 432.643 284.681 432.562 284.226 432.562C283.595 432.562 283.023 432.738 282.51 433.09C282.011 433.427 281.615 433.904 281.322 434.52C281.029 435.136 280.882 435.855 280.882 436.676C280.882 437.483 281.021 438.194 281.3 438.81C281.579 439.426 281.967 439.91 282.466 440.262C282.965 440.599 283.544 440.768 284.204 440.768C284.703 440.768 285.165 440.673 285.59 440.482C286.015 440.291 286.382 440.049 286.69 439.756L287.482 440.856C287.027 441.281 286.514 441.626 285.942 441.89C285.37 442.139 284.739 442.264 284.05 442.264ZM293.83 442.264C292.965 442.264 292.151 442.044 291.388 441.604C290.64 441.164 290.031 440.526 289.562 439.69C289.107 438.854 288.88 437.849 288.88 436.676C288.88 435.473 289.107 434.454 289.562 433.618C290.031 432.782 290.64 432.144 291.388 431.704C292.151 431.264 292.965 431.044 293.83 431.044C294.71 431.044 295.524 431.264 296.272 431.704C297.02 432.144 297.621 432.782 298.076 433.618C298.545 434.454 298.78 435.473 298.78 436.676C298.78 437.849 298.545 438.854 298.076 439.69C297.621 440.526 297.02 441.164 296.272 441.604C295.524 442.044 294.71 442.264 293.83 442.264ZM293.83 440.768C294.446 440.768 294.989 440.599 295.458 440.262C295.927 439.91 296.287 439.426 296.536 438.81C296.785 438.194 296.91 437.483 296.91 436.676C296.91 435.855 296.785 435.136 296.536 434.52C296.287 433.889 295.927 433.405 295.458 433.068C294.989 432.716 294.446 432.54 293.83 432.54C293.214 432.54 292.671 432.716 292.202 433.068C291.747 433.405 291.388 433.889 291.124 434.52C290.875 435.136 290.75 435.855 290.75 436.676C290.75 437.483 290.875 438.194 291.124 438.81C291.388 439.426 291.747 439.91 292.202 440.262C292.671 440.599 293.214 440.768 293.83 440.768ZM301.882 442V431.308H303.378L303.532 432.848H303.598C304.111 432.335 304.654 431.909 305.226 431.572C305.798 431.22 306.451 431.044 307.184 431.044C308.313 431.044 309.135 431.403 309.648 432.122C310.176 432.826 310.44 433.86 310.44 435.224V442H308.636V435.466C308.636 434.454 308.475 433.728 308.152 433.288C307.844 432.833 307.331 432.606 306.612 432.606C306.069 432.606 305.578 432.745 305.138 433.024C304.713 433.303 304.229 433.713 303.686 434.256V442H301.882ZM316.993 442.264C316.216 442.264 315.475 442.132 314.771 441.868C314.082 441.589 313.495 441.208 313.011 440.724L313.847 439.668C314.316 440.049 314.8 440.343 315.299 440.548C315.812 440.753 316.399 440.856 317.059 440.856C317.763 440.856 318.291 440.695 318.643 440.372C318.995 440.035 319.171 439.639 319.171 439.184C319.171 438.817 319.046 438.517 318.797 438.282C318.562 438.033 318.262 437.827 317.895 437.666C317.543 437.49 317.162 437.329 316.751 437.182C316.223 436.991 315.717 436.771 315.233 436.522C314.749 436.258 314.353 435.935 314.045 435.554C313.752 435.158 313.605 434.667 313.605 434.08C313.605 433.215 313.928 432.496 314.573 431.924C315.233 431.337 316.142 431.044 317.301 431.044C317.961 431.044 318.577 431.161 319.149 431.396C319.721 431.616 320.212 431.902 320.623 432.254L319.787 433.288C319.406 433.024 319.017 432.819 318.621 432.672C318.225 432.525 317.785 432.452 317.301 432.452C316.626 432.452 316.128 432.606 315.805 432.914C315.497 433.222 315.343 433.581 315.343 433.992C315.343 434.315 315.438 434.586 315.629 434.806C315.82 435.011 316.084 435.195 316.421 435.356C316.773 435.517 317.169 435.671 317.609 435.818C318.166 436.023 318.694 436.258 319.193 436.522C319.706 436.771 320.117 437.101 320.425 437.512C320.748 437.908 320.909 438.429 320.909 439.074C320.909 439.661 320.755 440.196 320.447 440.68C320.154 441.149 319.714 441.531 319.127 441.824C318.555 442.117 317.844 442.264 316.993 442.264ZM326.826 442.264C325.697 442.264 324.868 441.912 324.34 441.208C323.827 440.489 323.57 439.448 323.57 438.084V431.308H325.374V437.842C325.374 438.839 325.528 439.565 325.836 440.02C326.159 440.46 326.672 440.68 327.376 440.68C327.919 440.68 328.403 440.541 328.828 440.262C329.268 439.969 329.745 439.514 330.258 438.898V431.308H332.062V442H330.566L330.412 440.328H330.346C329.862 440.915 329.334 441.384 328.762 441.736C328.205 442.088 327.559 442.264 326.826 442.264ZM337.869 442.198C337.414 442.198 337.047 442.11 336.769 441.934C336.49 441.743 336.285 441.472 336.153 441.12C336.021 440.753 335.955 440.313 335.955 439.8V426.336H337.759V439.932C337.759 440.225 337.81 440.431 337.913 440.548C338.015 440.651 338.14 440.702 338.287 440.702C338.345 440.702 338.397 440.702 338.441 440.702C338.499 440.687 338.573 440.673 338.661 440.658L338.925 442.022C338.793 442.066 338.639 442.103 338.463 442.132C338.301 442.176 338.103 442.198 337.869 442.198ZM345.214 442.198C344.085 442.198 343.293 441.868 342.838 441.208C342.383 440.548 342.156 439.69 342.156 438.634V432.782H340.572V431.418L342.244 431.308L342.464 427.876H343.982V431.308H346.886V432.782H343.982V438.656C343.982 439.301 344.099 439.807 344.334 440.174C344.583 440.541 345.016 440.724 345.632 440.724C345.823 440.724 346.021 440.709 346.226 440.68C346.431 440.636 346.637 440.563 346.842 440.46L347.238 441.736C346.959 441.868 346.644 441.978 346.292 442.066C345.94 442.154 345.581 442.198 345.214 442.198ZM349.568 442V431.308H351.372V442H349.568ZM350.47 429.108C350.118 429.108 349.824 428.998 349.59 428.778C349.37 428.558 349.26 428.272 349.26 427.92C349.26 427.568 349.37 427.282 349.59 427.062C349.824 426.842 350.118 426.732 350.47 426.732C350.822 426.732 351.108 426.842 351.328 427.062C351.562 427.282 351.68 427.568 351.68 427.92C351.68 428.272 351.562 428.558 351.328 428.778C351.108 428.998 350.822 429.108 350.47 429.108ZM355.268 442V431.308H356.764L356.918 432.848H356.984C357.497 432.335 358.04 431.909 358.612 431.572C359.184 431.22 359.836 431.044 360.57 431.044C361.699 431.044 362.52 431.403 363.034 432.122C363.562 432.826 363.826 433.86 363.826 435.224V442H362.022V435.466C362.022 434.454 361.86 433.728 361.538 433.288C361.23 432.833 360.716 432.606 359.998 432.606C359.455 432.606 358.964 432.745 358.524 433.024C358.098 433.303 357.614 433.713 357.072 434.256V442H355.268ZM371.193 446.928C370.328 446.928 369.558 446.811 368.883 446.576C368.223 446.356 367.702 446.033 367.321 445.608C366.954 445.183 366.771 444.662 366.771 444.046C366.771 443.591 366.91 443.151 367.189 442.726C367.468 442.315 367.849 441.949 368.333 441.626V441.538C368.069 441.362 367.842 441.135 367.651 440.856C367.475 440.563 367.387 440.211 367.387 439.8C367.387 439.345 367.512 438.949 367.761 438.612C368.025 438.275 368.289 438.011 368.553 437.82V437.732C368.216 437.439 367.9 437.043 367.607 436.544C367.314 436.045 367.167 435.481 367.167 434.85C367.167 434.073 367.35 433.398 367.717 432.826C368.098 432.254 368.59 431.814 369.191 431.506C369.807 431.198 370.474 431.044 371.193 431.044C371.486 431.044 371.765 431.073 372.029 431.132C372.293 431.176 372.52 431.235 372.711 431.308H376.429V432.694H374.207V432.782C374.471 433.017 374.684 433.31 374.845 433.662C375.021 434.014 375.109 434.432 375.109 434.916C375.109 435.679 374.933 436.339 374.581 436.896C374.229 437.439 373.76 437.864 373.173 438.172C372.586 438.465 371.926 438.612 371.193 438.612C370.929 438.612 370.658 438.583 370.379 438.524C370.1 438.451 369.836 438.355 369.587 438.238C369.411 438.399 369.25 438.575 369.103 438.766C368.971 438.957 368.905 439.206 368.905 439.514C368.905 439.851 369.037 440.13 369.301 440.35C369.58 440.57 370.078 440.68 370.797 440.68H372.865C374.112 440.68 375.043 440.885 375.659 441.296C376.29 441.692 376.605 442.337 376.605 443.232C376.605 443.892 376.385 444.501 375.945 445.058C375.505 445.615 374.874 446.063 374.053 446.4C373.246 446.752 372.293 446.928 371.193 446.928ZM371.193 437.402C371.604 437.402 371.978 437.299 372.315 437.094C372.667 436.874 372.946 436.573 373.151 436.192C373.356 435.811 373.459 435.363 373.459 434.85C373.459 434.058 373.239 433.449 372.799 433.024C372.359 432.584 371.824 432.364 371.193 432.364C370.562 432.364 370.027 432.584 369.587 433.024C369.147 433.449 368.927 434.058 368.927 434.85C368.927 435.363 369.03 435.811 369.235 436.192C369.44 436.573 369.712 436.874 370.049 437.094C370.401 437.299 370.782 437.402 371.193 437.402ZM371.457 445.674C372.132 445.674 372.718 445.571 373.217 445.366C373.73 445.161 374.126 444.889 374.405 444.552C374.698 444.215 374.845 443.863 374.845 443.496C374.845 442.997 374.654 442.653 374.273 442.462C373.906 442.271 373.378 442.176 372.689 442.176H370.841C370.636 442.176 370.408 442.161 370.159 442.132C369.924 442.103 369.69 442.059 369.455 442C369.059 442.279 368.773 442.572 368.597 442.88C368.436 443.188 368.355 443.496 368.355 443.804C368.355 444.376 368.626 444.831 369.169 445.168C369.726 445.505 370.489 445.674 371.457 445.674Z" fill="black"/>
<path d="M10.804 232V221.308H12.3L12.454 222.848H12.52C12.9893 222.349 13.4953 221.924 14.038 221.572C14.5953 221.22 15.1967 221.044 15.842 221.044C16.6633 221.044 17.3013 221.227 17.756 221.594C18.2253 221.961 18.57 222.459 18.79 223.09C19.3473 222.474 19.912 221.983 20.484 221.616C21.056 221.235 21.6647 221.044 22.31 221.044C23.4247 221.044 24.246 221.403 24.774 222.122C25.302 222.826 25.566 223.86 25.566 225.224V232H23.762V225.466C23.762 224.454 23.6007 223.728 23.278 223.288C22.9553 222.833 22.4567 222.606 21.782 222.606C21.3567 222.606 20.924 222.745 20.484 223.024C20.0587 223.288 19.5967 223.699 19.098 224.256V232H17.294V225.466C17.294 224.454 17.1327 223.728 16.81 223.288C16.4873 222.833 15.9813 222.606 15.292 222.606C14.4853 222.606 13.5907 223.156 12.608 224.256V232H10.804ZM33.6642 232.264C32.7109 232.264 31.8382 232.044 31.0462 231.604C30.2689 231.149 29.6529 230.511 29.1982 229.69C28.7436 228.854 28.5162 227.842 28.5162 226.654C28.5162 225.495 28.7509 224.498 29.2202 223.662C29.6896 222.826 30.2909 222.181 31.0242 221.726C31.7576 221.271 32.5349 221.044 33.3562 221.044C34.2656 221.044 35.0356 221.257 35.6662 221.682C36.3116 222.093 36.7956 222.672 37.1182 223.42C37.4409 224.168 37.6022 225.048 37.6022 226.06C37.6022 226.251 37.5949 226.434 37.5802 226.61C37.5802 226.786 37.5582 226.962 37.5142 227.138H29.8142V225.708H35.9742C35.9742 224.681 35.7469 223.897 35.2922 223.354C34.8522 222.797 34.2142 222.518 33.3782 222.518C32.8942 222.518 32.4176 222.657 31.9482 222.936C31.4789 223.2 31.0902 223.633 30.7822 224.234C30.4889 224.835 30.3422 225.635 30.3422 226.632C30.3422 227.541 30.4962 228.304 30.8042 228.92C31.1269 229.536 31.5596 230.005 32.1022 230.328C32.6449 230.636 33.2389 230.79 33.8842 230.79C34.3976 230.79 34.8742 230.717 35.3142 230.57C35.7689 230.423 36.1796 230.225 36.5462 229.976L37.2062 231.164C36.7369 231.487 36.2089 231.751 35.6222 231.956C35.0502 232.161 34.3976 232.264 33.6642 232.264ZM44.1823 232.264C42.833 232.264 41.755 231.78 40.9483 230.812C40.1563 229.829 39.7603 228.451 39.7603 226.676C39.7603 225.517 39.973 224.52 40.3983 223.684C40.8383 222.833 41.4103 222.181 42.1143 221.726C42.8183 221.271 43.581 221.044 44.4023 221.044C45.033 221.044 45.5683 221.154 46.0083 221.374C46.463 221.579 46.925 221.88 47.3943 222.276L47.3063 220.45V216.336H49.1323V232H47.6363L47.4823 230.746H47.4163C47.0056 231.157 46.5216 231.516 45.9643 231.824C45.407 232.117 44.813 232.264 44.1823 232.264ZM44.5783 230.746C45.077 230.746 45.5463 230.621 45.9863 230.372C46.4263 230.123 46.8663 229.756 47.3063 229.272V223.684C46.8663 223.273 46.4336 222.987 46.0083 222.826C45.583 222.65 45.1503 222.562 44.7103 222.562C44.1383 222.562 43.6176 222.738 43.1483 223.09C42.6936 223.427 42.327 223.904 42.0483 224.52C41.7696 225.121 41.6303 225.833 41.6303 226.654C41.6303 227.93 41.887 228.935 42.4003 229.668C42.9136 230.387 43.6396 230.746 44.5783 230.746ZM53.0194 232V221.308H54.8234V232H53.0194ZM53.9214 219.108C53.5694 219.108 53.2761 218.998 53.0414 218.778C52.8214 218.558 52.7114 218.272 52.7114 217.92C52.7114 217.568 52.8214 217.282 53.0414 217.062C53.2761 216.842 53.5694 216.732 53.9214 216.732C54.2734 216.732 54.5594 216.842 54.7794 217.062C55.0141 217.282 55.1314 217.568 55.1314 217.92C55.1314 218.272 55.0141 218.558 54.7794 218.778C54.5594 218.998 54.2734 219.108 53.9214 219.108ZM62.9655 232.264C62.0122 232.264 61.1542 232.044 60.3915 231.604C59.6288 231.164 59.0275 230.526 58.5875 229.69C58.1475 228.854 57.9275 227.849 57.9275 226.676C57.9275 225.473 58.1622 224.454 58.6315 223.618C59.1155 222.782 59.7462 222.144 60.5235 221.704C61.3155 221.264 62.1662 221.044 63.0755 221.044C63.7795 221.044 64.3808 221.161 64.8795 221.396C65.3928 221.631 65.8328 221.931 66.1995 222.298L65.2975 223.42C65.0335 223.156 64.7182 222.951 64.3515 222.804C63.9995 222.643 63.5962 222.562 63.1415 222.562C62.5108 222.562 61.9388 222.738 61.4255 223.09C60.9268 223.427 60.5308 223.904 60.2375 224.52C59.9442 225.136 59.7975 225.855 59.7975 226.676C59.7975 227.483 59.9368 228.194 60.2155 228.81C60.4942 229.426 60.8828 229.91 61.3815 230.262C61.8802 230.599 62.4595 230.768 63.1195 230.768C63.6182 230.768 64.0802 230.673 64.5055 230.482C64.9308 230.291 65.2975 230.049 65.6055 229.756L66.3975 230.856C65.9428 231.281 65.4295 231.626 64.8575 231.89C64.2855 232.139 63.6548 232.264 62.9655 232.264ZM69.0387 232V221.308H70.8427V232H69.0387ZM69.9407 219.108C69.5887 219.108 69.2954 218.998 69.0607 218.778C68.8407 218.558 68.7307 218.272 68.7307 217.92C68.7307 217.568 68.8407 217.282 69.0607 217.062C69.2954 216.842 69.5887 216.732 69.9407 216.732C70.2927 216.732 70.5787 216.842 70.7987 217.062C71.0334 217.282 71.1507 217.568 71.1507 217.92C71.1507 218.272 71.0334 218.558 70.7987 218.778C70.5787 218.998 70.2927 219.108 69.9407 219.108ZM74.7387 232V221.308H76.2347L76.3887 222.848H76.4547C76.9681 222.335 77.5107 221.909 78.0827 221.572C78.6547 221.22 79.3074 221.044 80.0407 221.044C81.1701 221.044 81.9914 221.403 82.5048 222.122C83.0328 222.826 83.2967 223.86 83.2967 225.224V232H81.4928V225.466C81.4928 224.454 81.3314 223.728 81.0087 223.288C80.7007 222.833 80.1874 222.606 79.4688 222.606C78.9261 222.606 78.4347 222.745 77.9947 223.024C77.5694 223.303 77.0854 223.713 76.5427 224.256V232H74.7387ZM91.39 232.264C90.4367 232.264 89.564 232.044 88.772 231.604C87.9947 231.149 87.3787 230.511 86.924 229.69C86.4693 228.854 86.242 227.842 86.242 226.654C86.242 225.495 86.4767 224.498 86.946 223.662C87.4153 222.826 88.0167 222.181 88.75 221.726C89.4833 221.271 90.2607 221.044 91.082 221.044C91.9913 221.044 92.7613 221.257 93.392 221.682C94.0373 222.093 94.5213 222.672 94.844 223.42C95.1667 224.168 95.328 225.048 95.328 226.06C95.328 226.251 95.3207 226.434 95.306 226.61C95.306 226.786 95.284 226.962 95.24 227.138H87.54V225.708H93.7C93.7 224.681 93.4727 223.897 93.018 223.354C92.578 222.797 91.94 222.518 91.104 222.518C90.62 222.518 90.1433 222.657 89.674 222.936C89.2047 223.2 88.816 223.633 88.508 224.234C88.2147 224.835 88.068 225.635 88.068 226.632C88.068 227.541 88.222 228.304 88.53 228.92C88.8527 229.536 89.2853 230.005 89.828 230.328C90.3707 230.636 90.9647 230.79 91.61 230.79C92.1233 230.79 92.6 230.717 93.04 230.57C93.4947 230.423 93.9053 230.225 94.272 229.976L94.932 231.164C94.4627 231.487 93.9347 231.751 93.348 231.956C92.776 232.161 92.1233 232.264 91.39 232.264Z" fill="black"/>
<defs>
<clipPath id="clip0_107_508">
<rect width="400" height="381.095" fill="white" transform="translate(120 40)"/>
</clipPath>
</defs>
</svg>
