<svg width="640" height="462" viewBox="0 0 640 462" fill="none" xmlns="http://www.w3.org/2000/svg">
<g clip-path="url(#clip0_107_508)">
<path d="M514.873 97.0592C514.047 83.0529 511.69 69.1944 505.561 56.3996C500.345 45.4664 491.77 39.3498 479.216 40.059C465.631 40.7977 452.076 42.1569 438.521 42.3638C409.819 42.7775 381.087 42.7479 352.385 42.6002C321.827 42.4524 291.239 42.9548 260.74 41.4182C222.814 39.5271 185.095 40.3249 147.523 45.5551C136.915 47.0325 129.724 53.3561 125.393 63.3436C121.503 72.3266 119.853 81.6936 120 91.3266C120.648 133.375 119.558 175.394 121.12 217.442C123.241 274.531 126.66 331.413 132.553 388.265C135.294 414.653 153.328 423.695 173.278 420.474C213.443 414.003 253.903 414.948 294.215 412.998C349.674 410.309 405.222 409.629 460.74 407.561C473.499 407.088 486.436 406.172 498.93 402.744C513.429 398.785 519.764 390.984 519.853 375.855C520.03 344.119 519.912 312.383 519.912 275.92C520.589 219.392 518.527 158.226 514.932 97.1183L514.873 97.0592ZM502.643 375.382C501.936 383.36 498.105 386.758 491.328 387.733C483.342 388.886 475.297 389.684 467.252 389.95C394.525 392.52 321.768 394.441 249.041 397.662C223.463 398.785 197.648 399.435 172.512 405.581C171.805 405.758 171.039 405.729 170.302 405.729C153.24 405.758 148.879 409.541 147.022 387.881C144.046 353.072 139.891 318.352 137.651 283.514C133.379 216.556 133.054 149.45 133.202 82.3437C133.231 63.3732 141.6 54.9222 160.224 53.7697C205.045 51.0512 249.954 49.7215 294.716 51.9377C330.726 53.7106 366.736 53.7993 402.717 54.4494C426.881 54.8926 451.251 54.5085 475.474 53.2379C485.611 52.706 490.532 56.7837 493.685 66.5349C501.907 91.9767 500.639 118.394 501.317 144.308C502.614 192.562 505.561 240.845 504.028 289.187C503.704 317.909 505.178 346.66 502.614 375.382H502.643Z" fill="#141616"/>
<path d="M416.95 91.2088C400.477 93.5432 388.602 103.265 379.467 116.119C374.899 122.501 372.483 122.856 367.208 117.389C355.598 105.363 341.63 97.8869 331.758 97.5618C292.713 97.0004 272.822 121.29 278.656 152.73C283.018 176.192 297.162 193.124 314.018 208.371C333.349 225.834 356.894 236.383 379.467 248.646C389.751 254.231 396.087 251.897 403.395 244.332C417.481 229.794 430.712 214.576 442.97 198.442C454.64 183.077 464.63 167.061 468.195 147.648C473.087 121.142 453.992 85.9195 416.95 91.1792V91.2088ZM452.43 150.071C449.954 160.679 444.974 170.193 438.845 178.851C426.085 196.847 411.675 213.542 396.853 229.883C391.725 235.527 387.453 236.915 379.938 233.044C354.36 219.865 329.165 206.391 310.393 183.727C302.113 173.739 295.777 162.777 293.214 149.686C288.705 126.638 301.995 110.209 330.167 110.8C343.457 112.425 358.927 118.512 366.353 136.892C367.945 140.822 369.064 144.752 374.369 144.338C379.378 143.954 381.087 139.906 382.03 136.035C384.182 127.288 389.839 121.083 396.146 115.439C409.259 103.679 425.673 101.226 437.755 108.82C449.453 116.178 455.966 134.735 452.4 150.1L452.43 150.071Z" fill="#161515"/>
</g>
<path d="M335.188 177.198C334.997 177.198 334.829 177.183 334.682 177.154C334.535 177.125 334.381 177.081 334.22 177.022L334.572 175.372C334.645 175.387 334.719 175.409 334.792 175.438C334.88 175.453 334.968 175.46 335.056 175.46C335.423 175.46 335.731 175.284 335.98 174.932C336.229 174.565 336.398 174.001 336.486 173.238C336.633 172.094 336.772 170.943 336.904 169.784C337.036 168.625 337.168 167.467 337.3 166.308H343.878V177H342.052V167.782H338.73C338.613 168.765 338.495 169.755 338.378 170.752C338.275 171.735 338.158 172.717 338.026 173.7C337.879 174.859 337.564 175.731 337.08 176.318C336.611 176.905 335.98 177.198 335.188 177.198ZM347.778 177V166.308H349.582V170.708H352.288V172.314H349.582V177H347.778ZM356.578 177.264C355.683 177.264 354.876 177.044 354.158 176.604C353.454 176.164 352.896 175.526 352.486 174.69C352.075 173.839 351.87 172.835 351.87 171.676C351.87 170.488 352.075 169.476 352.486 168.64C352.896 167.804 353.454 167.166 354.158 166.726C354.876 166.271 355.683 166.044 356.578 166.044C357.428 166.044 358.206 166.264 358.91 166.704C359.614 167.144 360.171 167.782 360.582 168.618C360.992 169.454 361.198 170.473 361.198 171.676C361.198 172.849 360.992 173.854 360.582 174.69C360.171 175.526 359.614 176.164 358.91 176.604C358.206 177.044 357.428 177.264 356.578 177.264ZM356.49 175.768C357.076 175.768 357.582 175.599 358.008 175.262C358.433 174.91 358.756 174.426 358.976 173.81C359.21 173.194 359.328 172.483 359.328 171.676C359.328 170.855 359.21 170.136 358.976 169.52C358.756 168.889 358.433 168.405 358.008 168.068C357.582 167.716 357.076 167.54 356.49 167.54C355.903 167.54 355.39 167.716 354.95 168.068C354.524 168.405 354.187 168.889 353.938 169.52C353.703 170.136 353.586 170.855 353.586 171.676C353.586 172.483 353.703 173.194 353.938 173.81C354.187 174.426 354.524 174.91 354.95 175.262C355.39 175.599 355.903 175.768 356.49 175.768ZM364.68 177V180.784H363.118L362.92 176.67V175.526H373.722V176.67L373.546 180.784H371.984V177H364.68ZM370.356 176.45V167.782H366.946L366.528 171.39C366.425 172.373 366.278 173.194 366.088 173.854C365.912 174.499 365.699 175.013 365.45 175.394C365.215 175.775 364.958 176.054 364.68 176.23C364.416 176.406 364.144 176.523 363.866 176.582L363.448 175.526C363.653 175.423 363.844 175.24 364.02 174.976C364.196 174.712 364.357 174.279 364.504 173.678C364.665 173.077 364.812 172.197 364.944 171.038L365.516 166.308H372.16V176.45H370.356ZM376.322 177V166.308H378.082V170.752C378.082 171.339 378.067 171.962 378.038 172.622C378.009 173.282 377.965 173.993 377.906 174.756H377.994C378.199 174.36 378.427 173.942 378.676 173.502C378.94 173.047 379.175 172.659 379.38 172.336L383.164 166.308H385.144V177H383.384V172.556C383.384 171.984 383.399 171.368 383.428 170.708C383.457 170.033 383.501 169.315 383.56 168.552H383.472C383.267 168.948 383.039 169.373 382.79 169.828C382.541 170.268 382.306 170.657 382.086 170.994L378.28 177H376.322ZM389.048 177V166.308H390.852V170.642H396V166.308H397.804V177H396V172.248H390.852V177H389.048ZM404.151 177.264C403.564 177.264 403.029 177.147 402.545 176.912C402.076 176.663 401.702 176.318 401.423 175.878C401.144 175.423 401.005 174.873 401.005 174.228C401.005 173.025 401.533 172.116 402.589 171.5C403.645 170.884 405.317 170.451 407.605 170.202C407.59 169.762 407.517 169.337 407.385 168.926C407.268 168.515 407.048 168.185 406.725 167.936C406.402 167.687 405.955 167.562 405.383 167.562C404.767 167.562 404.188 167.679 403.645 167.914C403.102 168.134 402.618 168.383 402.193 168.662L401.489 167.43C401.812 167.21 402.193 166.997 402.633 166.792C403.073 166.572 403.55 166.396 404.063 166.264C404.576 166.117 405.119 166.044 405.691 166.044C406.556 166.044 407.26 166.227 407.803 166.594C408.36 166.946 408.764 167.452 409.013 168.112C409.277 168.772 409.409 169.549 409.409 170.444V177H407.913L407.759 175.724H407.693C407.18 176.149 406.63 176.516 406.043 176.824C405.456 177.117 404.826 177.264 404.151 177.264ZM404.657 175.768C405.185 175.768 405.676 175.651 406.131 175.416C406.6 175.181 407.092 174.837 407.605 174.382V171.5C406.402 171.647 405.449 171.837 404.745 172.072C404.056 172.292 403.557 172.571 403.249 172.908C402.941 173.245 402.787 173.649 402.787 174.118C402.787 174.705 402.97 175.13 403.337 175.394C403.704 175.643 404.144 175.768 404.657 175.768Z" fill="black"/>
<path d="M256.804 21V10.308H265.362V21H263.558V11.782H258.608V21H256.804ZM273.496 21.264C272.543 21.264 271.685 21.044 270.922 20.604C270.159 20.164 269.558 19.526 269.118 18.69C268.678 17.854 268.458 16.8493 268.458 15.676C268.458 14.4733 268.693 13.454 269.162 12.618C269.646 11.782 270.277 11.144 271.054 10.704C271.846 10.264 272.697 10.044 273.606 10.044C274.31 10.044 274.911 10.1613 275.41 10.396C275.923 10.6307 276.363 10.9313 276.73 11.298L275.828 12.42C275.564 12.156 275.249 11.9507 274.882 11.804C274.53 11.6427 274.127 11.562 273.672 11.562C273.041 11.562 272.469 11.738 271.956 12.09C271.457 12.4273 271.061 12.904 270.768 13.52C270.475 14.136 270.328 14.8547 270.328 15.676C270.328 16.4827 270.467 17.194 270.746 17.81C271.025 18.426 271.413 18.91 271.912 19.262C272.411 19.5993 272.99 19.768 273.65 19.768C274.149 19.768 274.611 19.6727 275.036 19.482C275.461 19.2913 275.828 19.0493 276.136 18.756L276.928 19.856C276.473 20.2813 275.96 20.626 275.388 20.89C274.816 21.1393 274.185 21.264 273.496 21.264ZM279.569 21V10.308H281.329V14.752C281.329 15.3387 281.315 15.962 281.285 16.622C281.256 17.282 281.212 17.9933 281.153 18.756H281.241C281.447 18.36 281.674 17.942 281.923 17.502C282.187 17.0473 282.422 16.6587 282.627 16.336L286.411 10.308H288.391V21H286.631V16.556C286.631 15.984 286.646 15.368 286.675 14.708C286.705 14.0333 286.749 13.3147 286.807 12.552H286.719C286.514 12.948 286.287 13.3733 286.037 13.828C285.788 14.268 285.553 14.6567 285.333 14.994L281.527 21H279.569ZM290.799 21L294.297 15.412L291.063 10.308H293.021L294.451 12.662C294.612 12.9407 294.781 13.234 294.957 13.542C295.147 13.8353 295.331 14.136 295.507 14.444H295.595C295.756 14.136 295.917 13.8353 296.079 13.542C296.24 13.234 296.401 12.9407 296.563 12.662L297.861 10.308H299.753L296.519 15.61L299.995 21H298.037L296.475 18.514C296.284 18.1913 296.086 17.8687 295.881 17.546C295.69 17.2233 295.499 16.908 295.309 16.6H295.221C295.03 16.908 294.847 17.2233 294.671 17.546C294.495 17.854 294.319 18.1767 294.143 18.514L292.691 21H290.799ZM306.17 21.264C305.305 21.264 304.491 21.044 303.728 20.604C302.98 20.164 302.372 19.526 301.902 18.69C301.448 17.854 301.22 16.8493 301.22 15.676C301.22 14.4733 301.448 13.454 301.902 12.618C302.372 11.782 302.98 11.144 303.728 10.704C304.491 10.264 305.305 10.044 306.17 10.044C307.05 10.044 307.864 10.264 308.612 10.704C309.36 11.144 309.962 11.782 310.416 12.618C310.886 13.454 311.12 14.4733 311.12 15.676C311.12 16.8493 310.886 17.854 310.416 18.69C309.962 19.526 309.36 20.164 308.612 20.604C307.864 21.044 307.05 21.264 306.17 21.264ZM306.17 19.768C306.786 19.768 307.329 19.5993 307.798 19.262C308.268 18.91 308.627 18.426 308.876 17.81C309.126 17.194 309.25 16.4827 309.25 15.676C309.25 14.8547 309.126 14.136 308.876 13.52C308.627 12.8893 308.268 12.4053 307.798 12.068C307.329 11.716 306.786 11.54 306.17 11.54C305.554 11.54 305.012 11.716 304.542 12.068C304.088 12.4053 303.728 12.8893 303.464 13.52C303.215 14.136 303.09 14.8547 303.09 15.676C303.09 16.4827 303.215 17.194 303.464 17.81C303.728 18.426 304.088 18.91 304.542 19.262C305.012 19.5993 305.554 19.768 306.17 19.768ZM313.606 21.198C313.416 21.198 313.247 21.1833 313.1 21.154C312.954 21.1247 312.8 21.0807 312.638 21.022L312.99 19.372C313.064 19.3867 313.137 19.4087 313.21 19.438C313.298 19.4527 313.386 19.46 313.474 19.46C313.841 19.46 314.149 19.284 314.398 18.932C314.648 18.5653 314.816 18.0007 314.904 17.238C315.051 16.094 315.19 14.9427 315.322 13.784C315.454 12.6253 315.586 11.4667 315.718 10.308H322.296V21H320.47V11.782H317.148C317.031 12.7647 316.914 13.7547 316.796 14.752C316.694 15.7347 316.576 16.7173 316.444 17.7C316.298 18.8587 315.982 19.7313 315.498 20.318C315.029 20.9047 314.398 21.198 313.606 21.198ZM330.354 21.264C329.488 21.264 328.674 21.044 327.912 20.604C327.164 20.164 326.555 19.526 326.086 18.69C325.631 17.854 325.404 16.8493 325.404 15.676C325.404 14.4733 325.631 13.454 326.086 12.618C326.555 11.782 327.164 11.144 327.912 10.704C328.674 10.264 329.488 10.044 330.354 10.044C331.234 10.044 332.048 10.264 332.796 10.704C333.544 11.144 334.145 11.782 334.6 12.618C335.069 13.454 335.304 14.4733 335.304 15.676C335.304 16.8493 335.069 17.854 334.6 18.69C334.145 19.526 333.544 20.164 332.796 20.604C332.048 21.044 331.234 21.264 330.354 21.264ZM330.354 19.768C330.97 19.768 331.512 19.5993 331.982 19.262C332.451 18.91 332.81 18.426 333.06 17.81C333.309 17.194 333.434 16.4827 333.434 15.676C333.434 14.8547 333.309 14.136 333.06 13.52C332.81 12.8893 332.451 12.4053 331.982 12.068C331.512 11.716 330.97 11.54 330.354 11.54C329.738 11.54 329.195 11.716 328.726 12.068C328.271 12.4053 327.912 12.8893 327.648 13.52C327.398 14.136 327.274 14.8547 327.274 15.676C327.274 16.4827 327.398 17.194 327.648 17.81C327.912 18.426 328.271 18.91 328.726 19.262C329.195 19.5993 329.738 19.768 330.354 19.768ZM338.406 21V10.308H345.072V11.782H340.21V21H338.406ZM347.737 21V10.308H349.541V21H347.737ZM348.639 8.108C348.287 8.108 347.993 7.998 347.759 7.778C347.539 7.558 347.429 7.272 347.429 6.92C347.429 6.568 347.539 6.282 347.759 6.062C347.993 5.842 348.287 5.732 348.639 5.732C348.991 5.732 349.277 5.842 349.497 6.062C349.731 6.282 349.849 6.568 349.849 6.92C349.849 7.272 349.731 7.558 349.497 7.778C349.277 7.998 348.991 8.108 348.639 8.108ZM359.333 21V16.82H357.331C356.817 16.82 356.311 16.7613 355.813 16.644C355.314 16.512 354.867 16.314 354.471 16.05C354.075 15.7713 353.752 15.4193 353.503 14.994C353.268 14.5687 353.151 14.0627 353.151 13.476C353.151 12.684 353.334 12.0607 353.701 11.606C354.082 11.1367 354.588 10.8067 355.219 10.616C355.849 10.4107 356.561 10.308 357.353 10.308H361.137V21H359.333ZM357.661 15.412H359.333V11.716H357.661C356.825 11.716 356.165 11.8627 355.681 12.156C355.211 12.4347 354.977 12.882 354.977 13.498C354.977 14.114 355.211 14.5907 355.681 14.928C356.165 15.2507 356.825 15.412 357.661 15.412ZM352.359 21L356.077 15.918L357.595 16.468L354.427 21H352.359Z" fill="black"/>
<path d="M544.962 232.264C544.097 232.264 543.283 232.044 542.52 231.604C541.772 231.164 541.163 230.526 540.694 229.69C540.239 228.854 540.012 227.849 540.012 226.676C540.012 225.473 540.239 224.454 540.694 223.618C541.163 222.782 541.772 222.144 542.52 221.704C543.283 221.264 544.097 221.044 544.962 221.044C545.842 221.044 546.656 221.264 547.404 221.704C548.152 222.144 548.753 222.782 549.208 223.618C549.677 224.454 549.912 225.473 549.912 226.676C549.912 227.849 549.677 228.854 549.208 229.69C548.753 230.526 548.152 231.164 547.404 231.604C546.656 232.044 545.842 232.264 544.962 232.264ZM544.962 230.768C545.578 230.768 546.121 230.599 546.59 230.262C547.059 229.91 547.419 229.426 547.668 228.81C547.917 228.194 548.042 227.483 548.042 226.676C548.042 225.855 547.917 225.136 547.668 224.52C547.419 223.889 547.059 223.405 546.59 223.068C546.121 222.716 545.578 222.54 544.962 222.54C544.346 222.54 543.803 222.716 543.334 223.068C542.879 223.405 542.52 223.889 542.256 224.52C542.007 225.136 541.882 225.855 541.882 226.676C541.882 227.483 542.007 228.194 542.256 228.81C542.52 229.426 542.879 229.91 543.334 230.262C543.803 230.599 544.346 230.768 544.962 230.768ZM557.26 232.264C556.306 232.264 555.448 232.044 554.686 231.604C553.923 231.164 553.322 230.526 552.882 229.69C552.442 228.854 552.222 227.849 552.222 226.676C552.222 225.473 552.456 224.454 552.926 223.618C553.41 222.782 554.04 222.144 554.818 221.704C555.61 221.264 556.46 221.044 557.37 221.044C558.074 221.044 558.675 221.161 559.174 221.396C559.687 221.631 560.127 221.931 560.494 222.298L559.592 223.42C559.328 223.156 559.012 222.951 558.646 222.804C558.294 222.643 557.89 222.562 557.436 222.562C556.805 222.562 556.233 222.738 555.72 223.09C555.221 223.427 554.825 223.904 554.532 224.52C554.238 225.136 554.092 225.855 554.092 226.676C554.092 227.483 554.231 228.194 554.51 228.81C554.788 229.426 555.177 229.91 555.676 230.262C556.174 230.599 556.754 230.768 557.414 230.768C557.912 230.768 558.374 230.673 558.8 230.482C559.225 230.291 559.592 230.049 559.9 229.756L560.692 230.856C560.237 231.281 559.724 231.626 559.152 231.89C558.58 232.139 557.949 232.264 557.26 232.264ZM563.333 232V221.308H567.447C568.224 221.308 568.906 221.396 569.493 221.572C570.094 221.748 570.556 222.041 570.879 222.452C571.216 222.848 571.385 223.369 571.385 224.014C571.385 224.601 571.224 225.092 570.901 225.488C570.593 225.869 570.16 226.141 569.603 226.302V226.39C570.014 226.463 570.388 226.61 570.725 226.83C571.062 227.035 571.334 227.314 571.539 227.666C571.744 228.003 571.847 228.421 571.847 228.92C571.847 229.639 571.664 230.225 571.297 230.68C570.945 231.135 570.446 231.472 569.801 231.692C569.17 231.897 568.444 232 567.623 232H563.333ZM565.115 225.752H567.139C568.019 225.752 568.65 225.613 569.031 225.334C569.412 225.041 569.603 224.659 569.603 224.19C569.603 223.677 569.42 223.288 569.053 223.024C568.686 222.745 568.092 222.606 567.271 222.606H565.115V225.752ZM565.115 230.702H567.425C568.32 230.702 568.98 230.541 569.405 230.218C569.83 229.895 570.043 229.433 570.043 228.832C570.043 228.304 569.808 227.893 569.339 227.6C568.884 227.292 568.202 227.138 567.293 227.138H565.115V230.702ZM574.791 232V221.308H576.595V232H574.791ZM575.693 219.108C575.341 219.108 575.048 218.998 574.813 218.778C574.593 218.558 574.483 218.272 574.483 217.92C574.483 217.568 574.593 217.282 574.813 217.062C575.048 216.842 575.341 216.732 575.693 216.732C576.045 216.732 576.331 216.842 576.551 217.062C576.786 217.282 576.903 217.568 576.903 217.92C576.903 218.272 576.786 218.558 576.551 218.778C576.331 218.998 576.045 219.108 575.693 219.108ZM582.845 232V222.782H579.259V221.308H588.235V222.782H584.649V232H582.845ZM592.887 232.264C592.301 232.264 591.765 232.147 591.281 231.912C590.812 231.663 590.438 231.318 590.159 230.878C589.881 230.423 589.741 229.873 589.741 229.228C589.741 228.025 590.269 227.116 591.325 226.5C592.381 225.884 594.053 225.451 596.341 225.202C596.327 224.762 596.253 224.337 596.121 223.926C596.004 223.515 595.784 223.185 595.461 222.936C595.139 222.687 594.691 222.562 594.119 222.562C593.503 222.562 592.924 222.679 592.381 222.914C591.839 223.134 591.355 223.383 590.929 223.662L590.225 222.43C590.548 222.21 590.929 221.997 591.369 221.792C591.809 221.572 592.286 221.396 592.799 221.264C593.313 221.117 593.855 221.044 594.427 221.044C595.293 221.044 595.997 221.227 596.539 221.594C597.097 221.946 597.5 222.452 597.749 223.112C598.013 223.772 598.145 224.549 598.145 225.444V232H596.649L596.495 230.724H596.429C595.916 231.149 595.366 231.516 594.779 231.824C594.193 232.117 593.562 232.264 592.887 232.264ZM593.393 230.768C593.921 230.768 594.413 230.651 594.867 230.416C595.337 230.181 595.828 229.837 596.341 229.382V226.5C595.139 226.647 594.185 226.837 593.481 227.072C592.792 227.292 592.293 227.571 591.985 227.908C591.677 228.245 591.523 228.649 591.523 229.118C591.523 229.705 591.707 230.13 592.073 230.394C592.44 230.643 592.88 230.768 593.393 230.768Z" fill="black"/>
<path d="M279.804 442V431.308H281.608V435.708H283.852L284.908 433.332C285.201 432.701 285.487 432.232 285.766 431.924C286.059 431.601 286.36 431.381 286.668 431.264C286.991 431.147 287.35 431.088 287.746 431.088C287.981 431.088 288.193 431.132 288.384 431.22L288.054 432.914C287.995 432.885 287.937 432.87 287.878 432.87C287.834 432.855 287.775 432.848 287.702 432.848C287.423 432.848 287.159 432.929 286.91 433.09C286.675 433.251 286.426 433.64 286.162 434.256L285.238 436.368L288.692 442H286.712L283.918 437.182H281.608V442H279.804ZM294.754 442.264C293.889 442.264 293.075 442.044 292.312 441.604C291.564 441.164 290.955 440.526 290.486 439.69C290.031 438.854 289.804 437.849 289.804 436.676C289.804 435.473 290.031 434.454 290.486 433.618C290.955 432.782 291.564 432.144 292.312 431.704C293.075 431.264 293.889 431.044 294.754 431.044C295.634 431.044 296.448 431.264 297.196 431.704C297.944 432.144 298.545 432.782 299 433.618C299.469 434.454 299.704 435.473 299.704 436.676C299.704 437.849 299.469 438.854 299 439.69C298.545 440.526 297.944 441.164 297.196 441.604C296.448 442.044 295.634 442.264 294.754 442.264ZM294.754 440.768C295.37 440.768 295.913 440.599 296.382 440.262C296.851 439.91 297.211 439.426 297.46 438.81C297.709 438.194 297.834 437.483 297.834 436.676C297.834 435.855 297.709 435.136 297.46 434.52C297.211 433.889 296.851 433.405 296.382 433.068C295.913 432.716 295.37 432.54 294.754 432.54C294.138 432.54 293.595 432.716 293.126 433.068C292.671 433.405 292.312 433.889 292.048 434.52C291.799 435.136 291.674 435.855 291.674 436.676C291.674 437.483 291.799 438.194 292.048 438.81C292.312 439.426 292.671 439.91 293.126 440.262C293.595 440.599 294.138 440.768 294.754 440.768ZM302.806 442V431.308H304.61V435.642H309.758V431.308H311.562V442H309.758V437.248H304.61V442H302.806ZM319.691 442.264C318.738 442.264 317.88 442.044 317.117 441.604C316.355 441.164 315.753 440.526 315.313 439.69C314.873 438.854 314.653 437.849 314.653 436.676C314.653 435.473 314.888 434.454 315.357 433.618C315.841 432.782 316.472 432.144 317.249 431.704C318.041 431.264 318.892 431.044 319.801 431.044C320.505 431.044 321.107 431.161 321.605 431.396C322.119 431.631 322.559 431.931 322.925 432.298L322.023 433.42C321.759 433.156 321.444 432.951 321.077 432.804C320.725 432.643 320.322 432.562 319.867 432.562C319.237 432.562 318.665 432.738 318.151 433.09C317.653 433.427 317.257 433.904 316.963 434.52C316.67 435.136 316.523 435.855 316.523 436.676C316.523 437.483 316.663 438.194 316.941 438.81C317.22 439.426 317.609 439.91 318.107 440.262C318.606 440.599 319.185 440.768 319.845 440.768C320.344 440.768 320.806 440.673 321.231 440.482C321.657 440.291 322.023 440.049 322.331 439.756L323.123 440.856C322.669 441.281 322.155 441.626 321.583 441.89C321.011 442.139 320.381 442.264 319.691 442.264ZM328.014 442.264C327.427 442.264 326.892 442.147 326.408 441.912C325.938 441.663 325.564 441.318 325.286 440.878C325.007 440.423 324.868 439.873 324.868 439.228C324.868 438.025 325.396 437.116 326.452 436.5C327.508 435.884 329.18 435.451 331.468 435.202C331.453 434.762 331.38 434.337 331.248 433.926C331.13 433.515 330.91 433.185 330.588 432.936C330.265 432.687 329.818 432.562 329.246 432.562C328.63 432.562 328.05 432.679 327.508 432.914C326.965 433.134 326.481 433.383 326.056 433.662L325.352 432.43C325.674 432.21 326.056 431.997 326.496 431.792C326.936 431.572 327.412 431.396 327.926 431.264C328.439 431.117 328.982 431.044 329.554 431.044C330.419 431.044 331.123 431.227 331.666 431.594C332.223 431.946 332.626 432.452 332.876 433.112C333.14 433.772 333.272 434.549 333.272 435.444V442H331.776L331.622 440.724H331.556C331.042 441.149 330.492 441.516 329.906 441.824C329.319 442.117 328.688 442.264 328.014 442.264ZM328.52 440.768C329.048 440.768 329.539 440.651 329.994 440.416C330.463 440.181 330.954 439.837 331.468 439.382V436.5C330.265 436.647 329.312 436.837 328.608 437.072C327.918 437.292 327.42 437.571 327.112 437.908C326.804 438.245 326.65 438.649 326.65 439.118C326.65 439.705 326.833 440.13 327.2 440.394C327.566 440.643 328.006 440.768 328.52 440.768ZM336.306 442.198C336.115 442.198 335.946 442.183 335.8 442.154C335.653 442.125 335.499 442.081 335.338 442.022L335.69 440.372C335.763 440.387 335.836 440.409 335.91 440.438C335.998 440.453 336.086 440.46 336.174 440.46C336.54 440.46 336.848 440.284 337.098 439.932C337.347 439.565 337.516 439.001 337.604 438.238C337.75 437.094 337.89 435.943 338.022 434.784C338.154 433.625 338.286 432.467 338.418 431.308H344.996V442H343.17V432.782H339.848C339.73 433.765 339.613 434.755 339.496 435.752C339.393 436.735 339.276 437.717 339.144 438.7C338.997 439.859 338.682 440.731 338.198 441.318C337.728 441.905 337.098 442.198 336.306 442.198ZM351.249 442V432.782H347.663V431.308H356.639V432.782H353.053V442H351.249ZM359.3 442V431.308H361.104V442H359.3ZM360.202 429.108C359.85 429.108 359.557 428.998 359.322 428.778C359.102 428.558 358.992 428.272 358.992 427.92C358.992 427.568 359.102 427.282 359.322 427.062C359.557 426.842 359.85 426.732 360.202 426.732C360.554 426.732 360.84 426.842 361.06 427.062C361.295 427.282 361.412 427.568 361.412 427.92C361.412 428.272 361.295 428.558 361.06 428.778C360.84 428.998 360.554 429.108 360.202 429.108ZM365 442V431.308H366.804V435.642H371.952V431.308H373.756V442H371.952V437.248H366.804V442H365ZM377.64 442V431.308H384.306V432.782H379.444V442H377.64Z" fill="black"/>
<path d="M10.804 232V221.308H12.982L15.05 226.28C15.2113 226.691 15.3653 227.109 15.512 227.534C15.6733 227.959 15.82 228.421 15.952 228.92H16.04C16.2013 228.421 16.348 227.959 16.48 227.534C16.6267 227.109 16.7807 226.691 16.942 226.28L18.944 221.308H21.144V232H19.472V227.204C19.472 226.867 19.4793 226.485 19.494 226.06C19.5233 225.62 19.5527 225.173 19.582 224.718C19.6113 224.263 19.6407 223.845 19.67 223.464H19.582C19.4353 223.919 19.274 224.373 19.098 224.828C18.9367 225.283 18.7753 225.715 18.614 226.126L16.656 230.988H15.292L13.29 226.126C13.1433 225.715 12.982 225.283 12.806 224.828C12.6447 224.373 12.4833 223.919 12.322 223.464H12.234C12.2633 223.845 12.2927 224.263 12.322 224.718C12.366 225.173 12.3953 225.62 12.41 226.06C12.4247 226.485 12.432 226.867 12.432 227.204V232H10.804ZM29.3459 232.264C28.3925 232.264 27.5199 232.044 26.7279 231.604C25.9505 231.149 25.3345 230.511 24.8799 229.69C24.4252 228.854 24.1979 227.842 24.1979 226.654C24.1979 225.495 24.4325 224.498 24.9019 223.662C25.3712 222.826 25.9725 222.181 26.7059 221.726C27.4392 221.271 28.2165 221.044 29.0379 221.044C29.9472 221.044 30.7172 221.257 31.3479 221.682C31.9932 222.093 32.4772 222.672 32.7999 223.42C33.1225 224.168 33.2839 225.048 33.2839 226.06C33.2839 226.251 33.2765 226.434 33.2619 226.61C33.2619 226.786 33.2399 226.962 33.1959 227.138H25.4959V225.708H31.6559C31.6559 224.681 31.4285 223.897 30.9739 223.354C30.5339 222.797 29.8959 222.518 29.0599 222.518C28.5759 222.518 28.0992 222.657 27.6299 222.936C27.1605 223.2 26.7719 223.633 26.4639 224.234C26.1705 224.835 26.0239 225.635 26.0239 226.632C26.0239 227.541 26.1779 228.304 26.4859 228.92C26.8085 229.536 27.2412 230.005 27.7839 230.328C28.3265 230.636 28.9205 230.79 29.5659 230.79C30.0792 230.79 30.5559 230.717 30.9959 230.57C31.4505 230.423 31.8612 230.225 32.2279 229.976L32.8879 231.164C32.4185 231.487 31.8905 231.751 31.3039 231.956C30.7319 232.161 30.0792 232.264 29.3459 232.264ZM36.5859 232V235.784H35.0239L34.8259 231.67V230.526H45.6279V231.67L45.4519 235.784H43.8899V232H36.5859ZM42.2619 231.45V222.782H38.8519L38.4339 226.39C38.3313 227.373 38.1846 228.194 37.9939 228.854C37.8179 229.499 37.6053 230.013 37.3559 230.394C37.1213 230.775 36.8646 231.054 36.5859 231.23C36.3219 231.406 36.0506 231.523 35.7719 231.582L35.3539 230.526C35.5593 230.423 35.7499 230.24 35.9259 229.976C36.1019 229.712 36.2633 229.279 36.4099 228.678C36.5713 228.077 36.7179 227.197 36.8499 226.038L37.4219 221.308H44.0659V231.45H42.2619ZM48.2284 232V221.308H49.9884V225.752C49.9884 226.339 49.9737 226.962 49.9444 227.622C49.9151 228.282 49.8711 228.993 49.8124 229.756H49.9004C50.1057 229.36 50.3331 228.942 50.5824 228.502C50.8464 228.047 51.0811 227.659 51.2864 227.336L55.0704 221.308H57.0504V232H55.2904V227.556C55.2904 226.984 55.3051 226.368 55.3344 225.708C55.3637 225.033 55.4077 224.315 55.4664 223.552H55.3784C55.1731 223.948 54.9457 224.373 54.6964 224.828C54.4471 225.268 54.2124 225.657 53.9924 225.994L50.1864 232H48.2284ZM69.1819 235.784V232H60.9539V221.308H62.7579V230.526H67.5539V221.308H69.3579V230.526H70.9199V231.67L70.7439 235.784H69.1819ZM73.5074 232V221.308H75.2674V225.752C75.2674 226.339 75.2528 226.962 75.2234 227.622C75.1941 228.282 75.1501 228.993 75.0914 229.756H75.1794C75.3848 229.36 75.6121 228.942 75.8614 228.502C76.1254 228.047 76.3601 227.659 76.5654 227.336L80.3494 221.308H82.3294V232H80.5694V227.556C80.5694 226.984 80.5841 226.368 80.6134 225.708C80.6428 225.033 80.6868 224.315 80.7454 223.552H80.6574C80.4521 223.948 80.2248 224.373 79.9754 224.828C79.7261 225.268 79.4914 225.657 79.2714 225.994L75.4654 232H73.5074ZM86.2329 232V221.308H88.0369V225.642H93.1849V221.308H94.9889V232H93.1849V227.248H88.0369V232H86.2329ZM101.336 232.264C100.75 232.264 100.214 232.147 99.7304 231.912C99.2611 231.663 98.8871 231.318 98.6084 230.878C98.3297 230.423 98.1904 229.873 98.1904 229.228C98.1904 228.025 98.7184 227.116 99.7744 226.5C100.83 225.884 102.502 225.451 104.79 225.202C104.776 224.762 104.702 224.337 104.57 223.926C104.453 223.515 104.233 223.185 103.91 222.936C103.588 222.687 103.14 222.562 102.568 222.562C101.952 222.562 101.373 222.679 100.83 222.914C100.288 223.134 99.8037 223.383 99.3784 223.662L98.6744 222.43C98.9971 222.21 99.3784 221.997 99.8184 221.792C100.258 221.572 100.735 221.396 101.248 221.264C101.762 221.117 102.304 221.044 102.876 221.044C103.742 221.044 104.446 221.227 104.988 221.594C105.546 221.946 105.949 222.452 106.198 223.112C106.462 223.772 106.594 224.549 106.594 225.444V232H105.098L104.944 230.724H104.878C104.365 231.149 103.815 231.516 103.228 231.824C102.642 232.117 102.011 232.264 101.336 232.264ZM101.842 230.768C102.37 230.768 102.862 230.651 103.316 230.416C103.786 230.181 104.277 229.837 104.79 229.382V226.5C103.588 226.647 102.634 226.837 101.93 227.072C101.241 227.292 100.742 227.571 100.434 227.908C100.126 228.245 99.9724 228.649 99.9724 229.118C99.9724 229.705 100.156 230.13 100.522 230.394C100.889 230.643 101.329 230.768 101.842 230.768Z" fill="black"/>
<defs>
<clipPath id="clip0_107_508">
<rect width="400" height="381.095" fill="white" transform="translate(120 40)"/>
</clipPath>
</defs>
</svg>
