<svg width="24" height="25" viewBox="0 0 24 25" fill="none" xmlns="http://www.w3.org/2000/svg">
<path d="M11.9939 2.5C10.0161 2.5 8.08269 3.08649 6.4382 4.1853C4.79371 5.28412 3.51198 6.8459 2.75511 8.67317C1.99823 10.5004 1.8002 12.5111 2.18605 14.4509C2.5719 16.3907 3.52431 18.1725 4.92283 19.5711C6.32136 20.9696 8.10319 21.922 10.043 22.3079C11.9828 22.6937 13.9935 22.4957 15.8207 21.7388C17.648 20.9819 19.2098 19.7002 20.3086 18.0557C21.4074 16.4112 21.9939 14.4778 21.9939 12.5C21.9939 11.1868 21.7352 9.88642 21.2327 8.67317C20.7302 7.45991 19.9936 6.35752 19.065 5.42893C18.1364 4.50035 17.034 3.76375 15.8207 3.2612C14.6075 2.75866 13.3071 2.5 11.9939 2.5ZM15.1739 17.652C15.1366 17.7454 15.0797 17.8298 15.0071 17.8994C14.9345 17.969 14.8478 18.0223 14.7529 18.0556C14.658 18.089 14.557 18.1016 14.4568 18.0927C14.3566 18.0838 14.2594 18.0536 14.1719 18.004L11.4569 15.894L9.7149 17.502C9.67447 17.5319 9.62718 17.5511 9.57738 17.5579C9.52758 17.5647 9.47687 17.5589 9.4299 17.541L9.7639 14.552L9.7739 14.561L9.7809 14.502C9.7809 14.502 14.6659 10.054 14.8649 9.865C15.0669 9.676 14.9999 9.635 14.9999 9.635C15.0119 9.405 14.6389 9.635 14.6389 9.635L8.1659 13.799L5.4709 12.881C5.4709 12.881 5.0569 12.733 5.0179 12.406C4.9769 12.082 5.4839 11.906 5.4839 11.906L16.2009 7.648C16.2009 7.648 17.0819 7.256 17.0819 7.906L15.1739 17.652Z" fill="black"/>
</svg>
