<svg width="86" height="82" viewBox="0 0 86 82" fill="none" xmlns="http://www.w3.org/2000/svg">
<g id="logo" clip-path="url(#clip0_107_400)">
<path id="Vector" d="M84.8976 12.2776C84.7202 9.26392 84.2133 6.28198 82.8955 3.52894C81.7741 1.17645 79.9305 -0.139665 77.2315 0.0129283C74.3107 0.17188 71.3963 0.464351 68.4819 0.508858C62.311 0.597871 56.1338 0.591512 49.9629 0.559722C43.3928 0.527932 36.8164 0.636019 30.259 0.305399C22.105 -0.101517 13.9954 0.0701509 5.91748 1.19553C3.63665 1.51343 2.09075 2.87406 1.15941 5.02309C0.323106 6.95594 -0.0316904 8.97145 -1.21872e-05 11.0442C0.139372 20.0917 -0.0950468 29.1329 0.240742 38.1804C0.696908 50.4642 1.43184 62.7035 2.69897 74.9364C3.28819 80.6142 7.1656 82.5597 11.4548 81.8667C20.0903 80.4743 28.7891 80.6777 37.4563 80.2581C49.38 79.6795 61.3227 79.5333 73.259 79.0882C76.0023 78.9865 78.7837 78.7894 81.47 78.0519C84.5871 77.1999 85.9493 75.5213 85.9683 72.266C86.0063 65.4374 85.981 58.6089 85.981 50.763C86.1267 38.6 85.6832 25.4388 84.9103 12.2904L84.8976 12.2776ZM82.2683 72.1643C82.1162 73.881 81.2926 74.6121 79.8354 74.822C78.1185 75.0699 76.3888 75.2416 74.6592 75.2988C59.0228 75.852 43.3801 76.2652 27.7438 76.9583C22.2444 77.1999 16.6944 77.3398 11.2901 78.6622C11.138 78.7004 10.9733 78.694 10.8149 78.694C7.14659 78.7004 6.20892 79.5142 5.80977 74.8537C5.16987 67.3639 4.27655 59.8932 3.79504 52.397C2.87637 37.9897 2.80668 23.5505 2.83836 9.11132C2.84469 5.02944 4.64401 3.21104 8.64814 2.96307C18.2846 2.37813 27.9402 2.09202 37.564 2.56887C45.3062 2.95036 53.0483 2.96943 60.7841 3.10931C65.9794 3.20468 71.2189 3.12202 76.4268 2.84863C78.6063 2.73418 79.6643 3.61159 80.3423 5.70976C82.1099 11.1841 81.8375 16.8682 81.9832 22.4442C82.262 32.8269 82.8955 43.216 82.5661 53.6178C82.4964 59.7978 82.8132 65.9842 82.262 72.1643H82.2683Z" fill="#141616"/>
<path id="Vector_2" d="M63.8442 11.0187C60.3025 11.5209 57.7493 13.6127 55.7852 16.3785C54.8032 17.7518 54.2837 17.8281 53.1496 16.6519C50.6534 14.0642 47.6503 12.4556 45.5278 12.3856C37.1331 12.2648 32.8565 17.4912 34.111 24.2562C35.0487 29.3045 38.0898 32.9476 41.7138 36.2284C45.8699 39.986 50.9321 42.2558 55.7852 44.8944C57.9964 46.0961 59.3585 45.5938 60.9298 43.9662C63.9582 40.838 66.8029 37.5636 69.4385 34.0921C71.9474 30.7859 74.0952 27.3398 74.8618 23.1626C75.9136 17.4594 71.8081 9.88056 63.8442 11.0123V11.0187ZM71.4723 23.6839C70.9401 25.9665 69.8694 28.0138 68.5515 29.8767C65.8082 33.7487 62.7101 37.3411 59.5233 40.8571C58.4209 42.0715 57.5022 42.3703 55.8866 41.5374C50.3873 38.7017 44.9703 35.8024 40.9345 30.9258C39.1542 28.7767 37.792 26.4179 37.2408 23.6013C36.2715 18.642 39.1288 15.1069 45.1857 15.2341C48.0431 15.5837 51.3693 16.8935 52.9659 20.8482C53.308 21.6939 53.5487 22.5395 54.6892 22.4505C55.7662 22.3678 56.1337 21.4968 56.3364 20.6638C56.7989 18.7819 58.0154 17.4467 59.3712 16.2323C62.1906 13.7018 65.7195 13.174 68.3171 14.8081C70.8324 16.3912 72.2326 20.3841 71.4659 23.6903L71.4723 23.6839Z" fill="#161515"/>
</g>
<defs>
<clipPath id="clip0_107_400">
<rect width="86" height="82" fill="white"/>
</clipPath>
</defs>
</svg>
